HIERARCHY
ROOT joint_Root
{
	OFFSET 0.0 0.0 0.0
	CHANNELS 6 Xposition Yposition Zposition Zrotation Xrotation Yrotation 
	JOINT Hips
	{
		OFFSET -17.1583 93.1646 452.98
		CHANNELS 6 Xposition Yposition Zposition Zrotation Xrotation Yrotation 
		JOINT Spine
		{
			OFFSET 15.7357 0.0 0.0
			CHANNELS 6 Xposition Yposition Zposition Zrotation Xrotation Yrotation 
			JOINT Chest
			{
				OFFSET 8.98455 -0.406207 0.0
				CHANNELS 6 Xposition Yposition Zposition Zrotation Xrotation Yrotation 
				JOINT Neck
				{
					OFFSET 16.3773 0.0 0.0
					CHANNELS 6 Xposition Yposition Zposition Zrotation Xrotation Yrotation 
					JOINT Head
					{
						OFFSET 6.45672 0.0 0.0
						CHANNELS 6 Xposition Yposition Zposition Zrotation Xrotation Yrotation 
						End Site
						{
							OFFSET 0.0 0.0 0.0
						}
					}
				}
				JOINT Shoulder_L
				{
					OFFSET 12.9942 -0.242716 4.98039
					CHANNELS 6 Xposition Yposition Zposition Zrotation Xrotation Yrotation 
					JOINT UpperArm_L
					{
						OFFSET 5.34809 0.0 0.0
						CHANNELS 6 Xposition Yposition Zposition Zrotation Xrotation Yrotation 
						JOINT LowerArm_L
						{
							OFFSET 24.3286 1.87007e-05 0.0
							CHANNELS 6 Xposition Yposition Zposition Zrotation Xrotation Yrotation 
							JOINT Hand_L
							{
								OFFSET 22.2916 0.0 0.0
								CHANNELS 6 Xposition Yposition Zposition Zrotation Xrotation Yrotation 
								End Site
								{
									OFFSET 0.0 0.0 0.0
								}
							}
						}
					}
				}
				JOINT Shoulder_R
				{
					OFFSET 12.9945 -0.242716 -4.98039
					CHANNELS 6 Xposition Yposition Zposition Zrotation Xrotation Yrotation 
					JOINT UpperArm_R
					{
						OFFSET -5.34813 0.0 0.0
						CHANNELS 6 Xposition Yposition Zposition Zrotation Xrotation Yrotation 
						JOINT LowerArm_R
						{
							OFFSET -24.3289 0.000322201 0.0
							CHANNELS 6 Xposition Yposition Zposition Zrotation Xrotation Yrotation 
							JOINT Hand_R
							{
								OFFSET -22.2915 -0.000108084 0.0
								CHANNELS 6 Xposition Yposition Zposition Zrotation Xrotation Yrotation 
								End Site
								{
									OFFSET 0.0 0.0 0.0
								}
							}
						}
					}
				}
			}
		}
		JOINT UpperLeg_L
		{
			OFFSET -2.19248 -6.46944 0.0
			CHANNELS 6 Xposition Yposition Zposition Zrotation Xrotation Yrotation 
			JOINT LowerLeg_L
			{
				OFFSET 39.0811 0.0 -1.23785e-05
				CHANNELS 6 Xposition Yposition Zposition Zrotation Xrotation Yrotation 
				JOINT Foot_L
				{
					OFFSET 40.9854 0.0 -1.26872e-05
					CHANNELS 6 Xposition Yposition Zposition Zrotation Xrotation Yrotation 
					JOINT Toes_L
					{
						OFFSET 11.7543 0.0 0.0
						CHANNELS 6 Xposition Yposition Zposition Zrotation Xrotation Yrotation 
						End Site
						{
							OFFSET 0.0 0.0 0.0
						}
					}
				}
			}
		}
		JOINT UpperLeg_R
		{
			OFFSET -2.19251 6.46944 0.0
			CHANNELS 6 Xposition Yposition Zposition Zrotation Xrotation Yrotation 
			JOINT LowerLeg_R
			{
				OFFSET -39.0811 -0.00228153 -0.0401928
				CHANNELS 6 Xposition Yposition Zposition Zrotation Xrotation Yrotation 
				JOINT Foot_R
				{
					OFFSET -40.9854 0.0 0.0
					CHANNELS 6 Xposition Yposition Zposition Zrotation Xrotation Yrotation 
					JOINT Toes_R
					{
						OFFSET -11.7543 0.0 0.0
						CHANNELS 6 Xposition Yposition Zposition Zrotation Xrotation Yrotation 
						End Site
						{
							OFFSET 0.0 0.0 0.0
						}
					}
				}
			}
		}
	}
}
MOTION
Frames:	8
Frame Time:	0.0333333
0.000000 0.000000 0.000000 0.000000 0.000000 -0.000000 -1.301520 93.084800 5.143940 88.702700 4.309020 -5.728000 15.735700 0.000005 -0.000001 -74.609000 88.422500 75.881200 8.984550 -0.406207 -0.000000 -10.796000 -1.038800 2.455860 16.377300 -0.000001 -0.000001 -6.858080 0.211850 -0.738832 6.456720 -0.000001 -0.000000 -12.063500 0.459568 -2.370530 12.994200 -0.242716 4.980390 -88.747200 -2.284540 -61.250300 5.348090 -0.000007 -0.000001 -69.034200 -64.994000 -111.343000 24.328600 0.000019 0.000005 0.000046 2.579210 -0.000000 22.291600 -0.000001 0.000005 49.315100 4.290050 19.945000 12.994500 -0.242716 -4.980390 93.021000 -5.122570 -59.413500 -5.348130 -0.000001 -0.000004 -68.526400 -62.066100 -117.950000 -24.328900 0.000322 -0.000009 -0.001097 -25.003700 -0.000141 -22.291500 -0.000108 -0.000004 35.956600 5.449030 -4.605080 -2.192480 -6.469440 -0.000000 -173.616000 -11.184400 -1.579760 39.081100 -0.000007 -0.000012 -0.019910 0.127676 8.863170 40.985400 -0.000006 -0.000013 -4.596230 17.378100 -67.021300 11.754300 -0.000000 0.000003 -0.004036 0.219449 -7.670610 -2.192510 6.469440 -0.000001 176.378000 13.376500 -177.548000 -39.081100 -0.002282 -0.040193 0.004093 -0.010860 3.921300 -40.985400 0.000008 0.000006 -10.347900 11.030000 -64.149600 -11.754300 -0.000006 -0.000006 -0.011319 0.280912 -5.157870
0.000000 0.000000 0.000000 0.000000 0.000000 -0.000000 -1.340190 93.098400 5.078470 88.683600 4.272710 -5.714240 15.735700 0.000005 -0.000001 -74.629100 88.442100 75.909400 8.984550 -0.406207 -0.000000 -10.758600 -1.028340 2.473390 16.377300 -0.000001 -0.000001 -6.761830 0.236935 -0.780936 6.456720 -0.000001 -0.000000 -12.007100 0.443678 -2.309300 12.994200 -0.242716 4.980390 -88.757000 -2.268450 -61.269200 5.348090 -0.000007 -0.000001 -68.919200 -65.007000 -111.258000 24.328600 0.000019 0.000005 0.000061 2.570190 -0.000000 22.291600 -0.000001 0.000005 49.128400 4.288680 19.966100 12.994500 -0.242716 -4.980390 93.039200 -5.146070 -59.376800 -5.348130 -0.000001 -0.000004 -68.747900 -61.838100 -118.098000 -24.328900 0.000322 -0.000009 -0.001035 -24.901100 -0.000140 -22.291500 -0.000108 -0.000004 35.769000 5.447070 -4.535910 -2.192480 -6.469440 -0.000000 -173.556000 -11.309700 -1.595890 39.081100 -0.000007 -0.000012 -0.021315 0.136960 8.845500 40.985400 -0.000006 -0.000013 -4.832160 17.494500 -66.903500 11.754300 -0.000000 0.000003 -0.003993 0.218994 -7.689150 -2.192510 6.469440 -0.000001 176.438000 13.258000 -177.563000 -39.081100 -0.002282 -0.040193 0.004043 -0.010264 3.868220 -40.985400 0.000008 0.000006 -10.276000 10.929300 -64.094900 -11.754300 -0.000006 -0.000006 -0.011515 0.282294 -5.101280
0.000000 0.000000 0.000000 0.000000 0.000000 -0.000000 -1.384360 93.123700 5.015070 88.683500 4.266210 -5.699140 15.735700 0.000005 -0.000001 -74.020000 88.466500 75.310100 8.984550 -0.406207 -0.000000 -10.702400 -1.047710 2.491740 16.377300 -0.000001 -0.000001 -6.715290 0.244744 -0.748436 6.456720 -0.000001 -0.000000 -11.976100 0.460118 -2.291990 12.994200 -0.242716 4.980390 -88.753400 -2.274220 -61.259500 5.348090 -0.000007 -0.000001 -68.889300 -65.024300 -111.213000 24.328600 0.000019 0.000005 0.000046 2.572720 -0.000000 22.291600 -0.000001 0.000005 49.218200 4.282460 20.061600 12.994500 -0.242716 -4.980390 93.043400 -5.150400 -59.363200 -5.348130 -0.000001 -0.000004 -68.739700 -61.706900 -118.130000 -24.328900 0.000322 -0.000009 -0.001035 -24.826700 -0.000139 -22.291500 -0.000108 -0.000004 35.595500 5.444160 -4.432790 -2.192480 -6.469440 -0.000000 -173.512000 -11.474400 -1.468960 39.081100 -0.000007 -0.000012 -0.021257 0.142076 8.509260 40.985400 -0.000006 -0.000013 -4.995810 17.651800 -66.570600 11.754300 -0.000000 0.000003 -0.003884 0.217863 -7.735200 -2.192510 6.469440 -0.000001 176.471000 13.271100 -177.571000 -39.081100 -0.002282 -0.040193 0.004131 -0.011770 3.801500 -40.985400 0.000008 0.000006 -10.303500 10.928600 -63.977900 -11.754300 -0.000006 -0.000006 -0.011469 0.281975 -5.114330
0.000000 0.000000 0.000000 0.000000 0.000000 -0.000000 -1.430180 93.151700 4.926390 88.638700 4.243610 -5.726930 15.735700 0.000005 -0.000001 -73.803600 88.489000 75.120500 8.984550 -0.406207 -0.000000 -10.655700 -1.050110 2.545580 16.377300 -0.000001 -0.000001 -6.661840 0.240681 -0.665530 6.456720 -0.000001 -0.000000 -12.044700 0.472448 -2.303130 12.994200 -0.242716 4.980390 -88.765000 -2.255760 -61.290000 5.348090 -0.000007 -0.000001 -68.636600 -65.141700 -111.029000 24.328600 0.000019 0.000005 0.000046 2.361690 -0.000000 22.291600 -0.000001 0.000005 49.272900 4.283850 20.040400 12.994500 -0.242716 -4.980390 93.067200 -5.183480 -59.327600 -5.348130 -0.000001 -0.000004 -68.654300 -61.619500 -118.076000 -24.328900 0.000322 -0.000009 -0.001096 -24.767800 -0.000139 -22.291500 -0.000108 -0.000004 35.369800 5.445590 -4.483240 -2.192480 -6.469440 -0.000000 -173.427000 -11.453600 -1.472650 39.081100 -0.000007 -0.000012 -0.022257 0.152233 8.317590 40.985400 -0.000006 -0.000013 -5.387790 17.669800 -66.226600 11.754300 -0.000000 0.000003 -0.003661 0.215499 -7.831480 -2.192510 6.469440 -0.000001 176.572000 13.275100 -177.658000 -39.081100 -0.002282 -0.040193 0.004173 -0.012552 3.755390 -40.985400 0.000008 0.000006 -10.242800 10.936700 -63.853500 -11.754300 -0.000006 -0.000006 -0.011400 0.281482 -5.134550
0.000000 0.000000 0.000000 0.000000 0.000000 -0.000000 -1.492680 93.187200 4.817130 88.601900 4.229020 -5.754620 15.735700 0.000005 -0.000001 -73.816500 88.513000 75.141300 8.984550 -0.406207 -0.000000 -10.609700 -1.036890 2.563060 16.377300 -0.000001 -0.000001 -6.661570 0.213792 -0.593503 6.456720 -0.000001 -0.000000 -12.061700 0.438699 -2.224110 12.994200 -0.242716 4.980390 -88.748800 -2.287500 -61.312100 5.348090 -0.000007 -0.000001 -68.465300 -65.183200 -110.925000 24.328600 0.000019 0.000005 0.000046 2.525150 -0.000000 22.291600 -0.000001 0.000005 49.412600 4.290290 19.941300 12.994500 -0.242716 -4.980390 93.070700 -5.183050 -59.296500 -5.348130 -0.000001 -0.000004 -68.656100 -61.504000 -118.047000 -24.328900 0.000322 -0.000009 -0.001095 -24.642000 -0.000138 -22.291500 -0.000108 -0.000004 35.673000 5.443990 -4.426010 -2.192480 -6.469440 -0.000000 -173.354000 -11.533800 -1.435620 39.081100 -0.000007 -0.000012 -0.022132 0.157474 7.999780 40.985400 -0.000006 -0.000013 -5.644270 17.713500 -65.883300 11.754300 -0.000000 0.000003 -0.003640 0.215271 -7.840770 -2.192510 6.469440 -0.000001 176.670000 13.239500 -177.740000 -39.081100 -0.002282 -0.040193 0.004252 -0.014072 3.671740 -40.985400 0.000008 0.000006 -10.181200 10.921400 -63.703400 -11.754300 -0.000006 -0.000006 -0.011333 0.281011 -5.153800
0.000000 0.000000 0.000000 0.000000 0.000000 -0.000000 -1.555330 93.220700 4.699950 88.572400 4.209080 -5.769180 15.735700 0.000005 -0.000001 -73.439500 88.545900 74.779800 8.984550 -0.406207 -0.000000 -10.540900 -1.038630 2.594400 16.377300 -0.000001 -0.000001 -6.644440 0.201512 -0.551111 6.456720 -0.000001 -0.000000 -12.104600 0.409303 -2.253000 12.994200 -0.242716 4.980390 -88.737500 -2.307880 -61.309700 5.348090 -0.000007 -0.000001 -68.547400 -65.186800 -111.047000 24.328600 0.000019 0.000005 0.000046 2.490020 -0.000000 22.291600 -0.000001 0.000005 49.218500 4.297470 19.830800 12.994500 -0.242716 -4.980390 93.099200 -5.225050 -59.266300 -5.348130 -0.000001 -0.000004 -68.681900 -61.387600 -118.095000 -24.328900 0.000322 -0.000009 -0.001095 -24.508200 -0.000138 -22.291500 -0.000108 -0.000004 35.531200 5.440630 -4.308190 -2.192480 -6.469440 -0.000000 -173.280000 -11.503600 -1.432730 39.081100 -0.000007 -0.000012 -0.022783 0.166956 7.770460 40.985400 -0.000006 -0.000013 -6.088060 17.668400 -65.516500 11.754300 -0.000000 0.000003 -0.003761 0.216558 -7.788360 -2.192510 6.469440 -0.000001 176.764000 13.277600 -177.832000 -39.081100 -0.002282 -0.040193 0.004314 -0.015252 3.618600 -40.985400 0.000008 0.000006 -10.130600 10.918500 -63.573900 -11.754300 -0.000006 -0.000006 -0.011623 0.283058 -5.070020
0.000000 0.000000 0.000000 0.000000 0.000000 -0.000000 -1.615430 93.255700 4.547320 88.577600 4.203370 -5.801240 15.735700 0.000005 -0.000001 -72.810200 88.580500 74.140800 8.984550 -0.406207 -0.000000 -10.465600 -1.046360 2.574800 16.377300 -0.000001 -0.000001 -6.626130 0.177300 -0.548581 6.456720 -0.000001 -0.000000 -12.140400 0.398428 -2.222590 12.994200 -0.242716 4.980390 -88.705400 -2.369490 -61.337400 5.348090 -0.000007 -0.000001 -68.604900 -65.202200 -111.187000 24.328600 0.000019 0.000005 0.000046 2.474460 -0.000000 22.291600 -0.000001 0.000005 49.326000 4.294650 19.874500 12.994500 -0.242716 -4.980390 93.117500 -5.256580 -59.269200 -5.348130 -0.000001 -0.000004 -68.879400 -61.252500 -118.275000 -24.328900 0.000322 -0.000009 -0.001095 -24.678000 -0.000139 -22.291500 -0.000108 -0.000004 35.602300 5.438710 -4.240900 -2.192480 -6.469440 -0.000000 -173.253000 -11.481100 -1.434380 39.081100 -0.000007 -0.000012 -0.022423 0.170844 7.477000 40.985400 -0.000006 -0.000013 -6.496090 17.667400 -65.100400 11.754300 -0.000000 0.000003 -0.003383 0.212490 -7.953960 -2.192510 6.469440 -0.000001 176.813000 13.314300 -177.920000 -39.081100 -0.002282 -0.040193 0.004542 -0.019429 3.510240 -40.985400 0.000008 0.000006 -10.235000 10.955400 -63.416700 -11.754300 -0.000006 -0.000006 -0.011761 0.284022 -5.030540
0.000000 0.000000 0.000000 0.000000 0.000000 -0.000000 -1.676910 93.270100 4.400830 88.553500 4.174750 -5.755530 15.735700 0.000005 -0.000001 -71.453500 88.654000 72.788300 8.984550 -0.406207 -0.000000 -10.305400 -1.062410 2.582860 16.377300 -0.000001 -0.000001 -6.645140 0.202911 -0.552450 6.456720 -0.000001 -0.000000 -12.147800 0.441572 -2.231530 12.994200 -0.242716 4.980390 -88.696400 -2.384810 -61.326800 5.348090 -0.000007 -0.000001 -69.061700 -65.115100 -111.769000 24.328600 0.000019 0.000005 0.000046 2.633410 -0.000000 22.291600 -0.000001 0.000005 49.230000 4.282200 20.065800 12.994500 -0.242716 -4.980390 93.124300 -5.271370 -59.284700 -5.348130 -0.000001 -0.000004 -68.944400 -61.146000 -118.407000 -24.328900 0.000322 -0.000009 -0.001095 -24.613800 -0.000138 -22.291500 -0.000108 -0.000004 35.625800 5.435710 -4.136490 -2.192480 -6.469440 -0.000000 -173.219000 -11.462500 -1.564770 39.081100 -0.000007 -0.000012 -0.022616 0.169326 7.607320 40.985400 -0.000006 -0.000013 -6.406410 17.620300 -65.136900 11.754300 -0.000000 0.000003 -0.003691 0.215816 -7.818570 -2.192510 6.469440 -0.000001 176.893000 13.365100 -177.992000 -39.081100 -0.002282 -0.040193 0.004488 -0.018519 3.517840 -40.985400 0.000008 0.000006 -10.043300 10.997400 -63.359600 -11.754300 -0.000006 -0.000006 -0.011397 0.281465 -5.135240
